# xmcd CD database file
#
# Track frame offsets:
#	150
#	8287
#	29450
#	39125
#	50737
#	62825
#	77575
#	94150
#	97675
#	112125
#	123487
#	143075
#	167737
#	179300
#	192925
#
# Disc length: 2935 seconds
#
# Revision: 0
# Processed by: cddbd v1.5.2PL0 Copyright (c) Steve Scherf et al.
# Submitted via: CDex 1.70beta2
#
DISCID=ba0b750f
DTITLE=Armstrong,Louis - The Real Ambassador
DYEAR=1961
DGENRE=Jazz
TTITLE0=Everybody´s Comin´
TTITLE1=Cultural Exchange
TTITLE2=Good Reviews
TTITLE3=Remember Who You Are
TTITLE4=My One Bad Habit
TTITLE5=Summer Song
TTITLE6=King For A Day
TTITLE7=Blow Satchmo
TTITLE8=The Real Ambassador
TTITLE9=In The Lurch
TTITLE10=One Moment Worth Years
TTITLE11=They Say I Look Like God
TTITLE12=Since Love Had Its Way
TTITLE13=I Didn´t Know Until You Told Me
TTITLE14=Swing Bells, Blow Satchmo, Finale
EXTD=YEAR: 1961
EXTT0=
EXTT1=
EXTT2=
EXTT3=
EXTT4=
EXTT5=
EXTT6=
EXTT7=
EXTT8=
EXTT9=
EXTT10=
EXTT11=
EXTT12=
EXTT13=
EXTT14=
PLAYORDER=
